HIERARCHY
ROOT Hips
{
	OFFSET 53.830799 -12.019916 93.926903
	CHANNELS 6 Xposition Yposition Zposition Xrotation Yrotation Zrotation
	JOINT spine
	{
		OFFSET 0.000000 -0.448574 7.800591
		CHANNELS 3 Xrotation Yrotation Zrotation
		JOINT spine1
		{
			OFFSET 0.000000 -0.000002 10.136398
			CHANNELS 3 Xrotation Yrotation Zrotation
			JOINT spine2
			{
				OFFSET 0.000000 -0.000002 9.712509
				CHANNELS 3 Xrotation Yrotation Zrotation
				JOINT Neck
				{
					OFFSET 0.000000 -1.188873 24.936096
					CHANNELS 3 Xrotation Yrotation Zrotation
					JOINT Head
					{
						OFFSET 0.000000 -0.000001 7.533844
						CHANNELS 3 Xrotation Yrotation Zrotation
						End Site
						{
							OFFSET 0.000000 6.014017 18.236099
						}
					}
				}
				JOINT RightShoulder
				{
					OFFSET -4.089649 0.569455 10.488800
					CHANNELS 3 Xrotation Yrotation Zrotation
					JOINT RightArm
					{
						OFFSET 0.000000 -0.000002 13.757004
						CHANNELS 3 Xrotation Yrotation Zrotation
						JOINT RightArmRoll
						{
							OFFSET 0.000000 -0.000001 6.944778
							CHANNELS 3 Xrotation Yrotation Zrotation
							JOINT RightForeArm
							{
								OFFSET 0.000000 -0.000004 20.227707
								CHANNELS 3 Xrotation Yrotation Zrotation
								JOINT RightForeArmRoll
								{
									OFFSET 0.000000 -0.000001 7.793121
									CHANNELS 3 Xrotation Yrotation Zrotation
									JOINT RightHand
									{
										OFFSET 0.000000 -0.000003 15.639099
										CHANNELS 3 Xrotation Yrotation Zrotation
										End Site
										{
											OFFSET 0.000000 0.000000 0.100006
										}
									}
								}
							}
						}
					}
				}
				JOINT LeftShoulder
				{
					OFFSET 4.089649 0.569455 10.488800
					CHANNELS 3 Xrotation Yrotation Zrotation
					JOINT LeftArm
					{
						OFFSET 0.000000 -0.000002 13.757004
						CHANNELS 3 Xrotation Yrotation Zrotation
						JOINT LeftArmRoll
						{
							OFFSET 0.000000 -0.000001 6.944778
							CHANNELS 3 Xrotation Yrotation Zrotation
							JOINT LeftForeArm
							{
								OFFSET 0.000000 -0.000004 20.227707
								CHANNELS 3 Xrotation Yrotation Zrotation
								JOINT LeftForeArmRoll
								{
									OFFSET 0.000000 -0.000001 7.793121
									CHANNELS 3 Xrotation Yrotation Zrotation
									JOINT LeftHand
									{
										OFFSET 0.000000 -0.000003 15.639099
										CHANNELS 3 Xrotation Yrotation Zrotation
										End Site
										{
											OFFSET 0.000000 0.000000 0.100006
										}
									}
								}
							}
						}
					}
				}
			}
		}
	}
	JOINT RightUpLeg
	{
		OFFSET -6.914150 1.063581 -1.267883
		CHANNELS 3 Xrotation Yrotation Zrotation
		JOINT RightUpLegRoll
		{
			OFFSET 0.000000 -0.000003 18.337799
			CHANNELS 3 Xrotation Yrotation Zrotation
			JOINT RightLeg
			{
				OFFSET 0.000000 0.000004 -22.708504
				CHANNELS 3 Xrotation Yrotation Zrotation
				JOINT RightLegRoll
				{
					OFFSET 0.000000 -0.000004 22.782799
					CHANNELS 3 Xrotation Yrotation Zrotation
					JOINT RightFoot
					{
						OFFSET 0.000000 -0.000003 18.962898
						CHANNELS 3 Xrotation Yrotation Zrotation
						JOINT RightToeBase
						{
							OFFSET 0.000000 -0.000003 15.852005
							CHANNELS 3 Xrotation Yrotation Zrotation
							End Site
							{
								OFFSET 0.006718 0.884892 7.677017
							}
						}
					}
				}
			}
		}
	}
	JOINT LeftUpLeg
	{
		OFFSET 6.914150 1.063581 -1.267883
		CHANNELS 3 Xrotation Yrotation Zrotation
		JOINT LeftUpLegRoll
		{
			OFFSET 0.000000 -0.000003 18.337898
			CHANNELS 3 Xrotation Yrotation Zrotation
			JOINT LeftLeg
			{
				OFFSET 0.000000 -0.000004 22.708405
				CHANNELS 3 Xrotation Yrotation Zrotation
				JOINT LeftLegRoll
				{
					OFFSET 0.000000 -0.000004 22.993408
					CHANNELS 3 Xrotation Yrotation Zrotation
					JOINT LeftFoot
					{
						OFFSET 0.000000 -0.000003 18.752197
						CHANNELS 3 Xrotation Yrotation Zrotation
						JOINT LeftToeBase
						{
							OFFSET 0.000000 -0.000003 15.852005
							CHANNELS 3 Xrotation Yrotation Zrotation
							End Site
							{
								OFFSET -0.030113 0.884891 7.677017
							}
						}
					}
				}
			}
		}
	}
}
MOTION
Frames: 7
Frame Time: 0.041667
53.793797 -13.636618 93.966896 -7.351420 -0.388302 0.229619 -2.190912 0.307176 0.376183 -0.382193 0.604756 0.746843 1.262863 0.613618 0.741581 35.342271 3.425728 -3.208124 -8.732716 -7.824664 -2.457449 -16.161981 -25.444903 -18.340890 -125.071678 -184.229204 -83.330412 -0.000000 -0.000002 0.000001 78.515149 -2.804735 3.522994 0.000001 -0.000010 -3.007585 -5.000190 -7.999403 0.000075 -16.106150 25.971676 18.272219 51.328038 2.830128 -101.466702 -0.000004 0.000003 -0.000004 80.796063 -2.560474 -5.674734 0.000002 0.000001 3.000001 -5.000157 7.999944 -0.000007 2.543021 -173.787074 1.978604 -179.999991 0.000005 -0.904995 167.244476 0.115082 -0.938953 -0.000005 -0.000002 0.019070 71.727088 5.266899 6.449742 25.457664 -7.355619 0.001043 5.820958 177.701892 5.646431 -0.000005 -0.000004 -1.360330 -10.488794 3.673461 0.649544 -0.000002 0.000002 -0.159805 73.612917 -6.758530 -2.175550 25.456953 7.355613 -0.007580 
53.794697 -13.642414 93.964584 -7.362359 -0.395742 0.232555 -2.190045 0.309998 0.376171 -0.380350 0.610412 0.747853 1.264704 0.619283 0.742988 35.432327 3.381077 -3.214274 -8.827512 -7.780862 -2.474860 -16.161377 -25.435700 -18.339644 -125.096609 -184.431118 -83.460151 -0.000001 0.000000 -0.000001 78.756883 -2.823047 3.543862 0.000003 -0.000005 -3.007581 -5.000190 -7.999407 0.000077 -16.080465 25.946871 18.233699 51.316512 2.645579 -101.362131 0.000001 -0.000002 -0.000006 80.975424 -2.517747 -5.693828 0.000002 0.000003 2.999999 -5.000152 7.999944 -0.000010 2.553363 -173.778140 1.985231 -179.999991 0.000005 -0.904995 167.237264 0.115078 -0.939936 -0.000005 -0.000002 0.019126 71.732750 5.265937 6.452719 25.457664 -7.355618 0.001042 5.840102 177.708941 5.649316 -0.000005 -0.000005 -1.360549 -10.475774 3.674293 0.648905 -0.000002 0.000002 -0.159751 73.608320 -6.759245 -2.172929 25.456959 7.355614 -0.007580 
53.802597 -13.667316 93.950294 -7.373253 -0.403233 0.235628 -2.189191 0.312797 0.376157 -0.378518 0.616005 0.748885 1.266534 0.624886 0.744419 35.521895 3.336409 -3.220344 -8.922005 -7.736087 -2.492198 -16.160678 -25.427391 -18.338481 -125.122509 -184.630341 -83.586994 -0.000001 -0.000005 -0.000000 78.989396 -2.840010 3.563415 0.000002 -0.000008 -3.007579 -5.000187 -7.999409 0.000076 -16.054377 25.924644 18.194668 51.302357 2.465302 -101.253750 -0.000000 0.000002 -0.000004 81.156677 -2.473555 -5.712404 0.000003 0.000001 3.000000 -5.000156 7.999944 -0.000011 2.563739 -173.769192 1.991846 -179.999991 0.000005 -0.904995 167.229969 0.116060 -0.940695 -0.000006 -0.000002 0.019183 71.738529 5.264946 6.455788 25.457664 -7.355616 0.001041 5.859228 177.716987 5.652259 -0.000005 -0.000004 -1.360760 -10.462556 3.675167 0.648255 -0.000002 0.000002 -0.159692 73.603519 -6.759973 -2.170524 25.456950 7.355613 -0.007580 
53.803097 -13.662614 93.955589 -7.384041 -0.410711 0.238779 -2.188364 0.315542 0.376144 -0.376714 0.621476 0.749922 1.268346 0.630369 0.745850 35.610106 3.292548 -3.226189 -9.014870 -7.691407 -2.509093 -16.160146 -25.419457 -18.337388 -125.148982 -184.826271 -83.712205 -0.000000 -0.000001 0.000001 79.212887 -2.855727 3.581623 0.000002 -0.000006 -3.007583 -5.000188 -7.999408 0.000079 -16.028084 25.904870 18.155483 51.286234 2.289438 -101.143449 0.000002 0.000001 -0.000004 81.342027 -2.427333 -5.731070 0.000003 0.000000 3.000000 -5.000155 7.999946 -0.000010 2.574113 -173.760258 1.998454 -179.999991 0.000005 -0.906006 167.222866 0.116058 -0.941678 -0.000006 -0.000002 0.019240 71.744300 5.263957 6.458854 25.457665 -7.355618 0.001042 5.878285 177.724022 5.655014 -0.000005 -0.000004 -1.360971 -10.449241 3.676102 0.647597 -0.000003 0.000002 -0.159625 73.598703 -6.760674 -2.168015 25.456952 7.355614 -0.007580 
53.802101 -13.667217 93.952286 -7.394656 -0.418115 0.241945 -2.187573 0.318201 0.376131 -0.374953 0.626768 0.750949 1.270109 0.635671 0.747254 35.695989 3.250302 -3.231649 -9.104758 -7.647928 -2.525192 -16.159627 -25.411615 -18.336432 -125.175852 -185.018377 -83.835081 -0.000002 -0.000001 0.000001 79.427648 -2.870385 3.598560 0.000004 -0.000007 -3.007583 -5.000187 -7.999408 0.000076 -16.001958 25.887021 18.116689 51.269292 2.118043 -101.032978 0.000000 0.000001 -0.000004 81.533512 -2.378511 -5.750583 0.000001 0.000001 3.000001 -5.000155 7.999945 -0.000009 2.584471 -173.751311 2.005023 -179.999991 0.000006 -0.906005 167.215967 0.117027 -0.942441 -0.000006 -0.000002 0.019297 71.749962 5.262994 6.461933 25.457667 -7.355617 0.001042 5.897228 177.732068 5.657745 -0.000005 -0.000004 -1.361170 -10.435723 3.677126 0.646927 -0.000003 0.000002 -0.159552 73.593881 -6.761345 -2.165604 25.456955 7.355614 -0.007580 
53.802097 -13.669717 93.952202 -7.405066 -0.425384 0.245064 -2.186803 0.320744 0.376121 -0.373261 0.631821 0.751949 1.271800 0.640735 0.748611 35.778778 3.210503 -3.236600 -9.190347 -7.606725 -2.540167 -16.159311 -25.403654 -18.335735 -125.203037 -185.206084 -83.956883 0.000003 -0.000000 0.000001 79.634009 -2.884074 3.614235 0.000001 -0.000008 -3.007585 -5.000184 -7.999408 0.000069 -15.976400 25.870757 18.078677 51.252189 1.951277 -100.924391 0.000003 0.000001 -0.000004 81.733370 -2.326576 -5.771351 0.000003 0.000002 3.000003 -5.000153 7.999949 -0.000012 2.594813 -173.743360 2.011518 -179.999991 0.000005 -0.906006 167.209369 0.117024 -0.944435 -0.000007 -0.000002 0.019355 71.755454 5.262115 6.464731 25.457665 -7.355617 0.001043 5.916003 177.739103 5.660223 -0.000005 -0.000005 -1.361370 -10.422206 3.678240 0.646251 -0.000002 0.000002 -0.159469 73.588957 -6.762055 -2.163204 25.456952 7.355614 -0.007580 
53.807495 -13.663416 93.954689 -7.415191 -0.432456 0.248078 -2.186075 0.323139 0.376115 -0.371655 0.636578 0.752907 1.273411 0.645503 0.749894 35.857595 3.173952 -3.240899 -9.270286 -7.568890 -2.553665 -16.159164 -25.395285 -18.335211 -125.230098 -185.388806 -84.078918 0.000001 0.000001 -0.000001 79.832262 -2.896923 3.628620 0.000001 -0.000011 -3.007581 -5.000183 -7.999407 0.000075 -15.951572 25.855676 18.041916 51.235885 1.789221 -100.819200 0.000005 0.000001 -0.000004 81.943829 -2.270927 -5.794444 0.000002 -0.000001 3.000002 -5.000158 7.999945 -0.000011 2.605107 -173.734440 2.018007 -179.999991 0.000005 -0.906006 167.203181 0.117021 -0.945420 -0.000006 -0.000002 0.019414 71.760734 5.261228 6.467640 25.457664 -7.355619 0.001042 5.934568 177.746138 5.662492 -0.000005 -0.000004 -1.361560 -10.408593 3.679492 0.645568 -0.000002 0.000002 -0.159374 73.584032 -6.762763 -2.160805 25.456955 7.355613 -0.007580 
